<svg width="46" height="82" viewBox="0 0 46 82" fill="none" xmlns="http://www.w3.org/2000/svg">
<rect x="7.94727" y="35.2173" width="20.3097" height="4.41346" rx="2.20673" fill="white"/>
<rect x="7.94727" y="41.3961" width="20.3097" height="4.41346" rx="2.20673" fill="white"/>
<path d="M32.8212 40.5135C32.8212 48.8818 26.0345 55.6673 17.6606 55.6673C9.28673 55.6673 2.5 48.8818 2.5 40.5135C2.5 32.1451 9.28673 25.3596 17.6606 25.3596C26.0345 25.3596 32.8212 32.1451 32.8212 40.5135Z" stroke="white" stroke-width="5"/>
<rect width="5.40436" height="19.6631" transform="matrix(0.810117 0.586268 -0.535183 0.844736 32.5991 9.8457)" fill="white"/>
<path d="M36.5635 5.54845C37.1772 5.22493 37.9259 5.67236 37.9918 6.402L39.0496 18.1072C39.1234 18.9241 38.3037 19.4696 37.6181 19.0598L26.716 12.5448C26.0303 12.135 26.0322 11.1008 26.7193 10.7386L36.5635 5.54845Z" fill="white"/>
<rect x="14.1285" y="55.5193" width="7.06425" height="26.4808" fill="white"/>
<rect x="4.41516" y="65.2289" width="26.4909" height="7.06154" fill="white"/>
</svg>
